/* XPM */
static char *collectable[] = {
/* columns rows colors chars-per-pixel */
"32 32 4 1 ",
"  c black",
". c #6ABE30",
"X c #FBF236",
"o c #99E550",
/* pixels */
"oooooooooooooooooooooooooooooooo",
"ooooooooooooooooooooooo.....oooo",
"oooooooooooooooooooooooooooooooo",
"oooooooooooooXXXXXXooooooooooooo",
"oo......ooXXXXXXXXXXXXoooooooooo",
"oooooooooXXXXXXXXXXXXXXooooooooo",
"ooooooooXXXXXXXXXXXXXXXX....oooo",
"oooooooXXXXXXXXXXXXXXXXXXooooooo",
"ooooooXXXXXXXXXXXXXXXXXXXXoooooo",
"oooooXXXXXXXX      XXXXXXXXooooo",
"....XXXXXXX        XXXXXXXXXoooo",
"ooooXXXXXX    XXXXXXXXXXXXXXoooo",
"ooooXXXXXX   XXXXXXXXXXXXXXXoooo",
"oooXXXXXXX  XXXXXXXXXXXXXXXXXooo",
"oooXXXXXXX  XXXXXXXXXXXXXXXXXooo",
"oooXXXXXXX  XXXXXXXXXXXXXXXXXooo",
"oooXXXXXXX   XXXXXXXXXXXXXXXXooo",
"oooXXXXXXX   XXXXXXXXXXXXXXXXooo",
"oooXXXXXXXX   XXXXXXXXXXXXXXX...",
"ooooXXXXXXX        XXXXXXXXXoooo",
"ooooXXXXXXXX       XXXXXXXXXoooo",
"ooooXXXXXXXXXXXXXXXXXXXXXXXXoooo",
"oooooXXXXXXXXXXXXXXXXXXXXXXooooo",
"....ooXXXXXXXXXXXXXXXXXXXXoooooo",
"oooooooXXXXXXXXXXXXXXXXXXooooooo",
"ooooooooXXXXXXXXXXXXXXXXoooooooo",
"oooooooooXXXXXXXXXXXXXXooooooooo",
"ooo......oXXXXXXXXXXXXo.......oo",
"oooooooooooooXXXXXXooooooooooooo",
"oooooooooooooooooooooooooooooooo",
"oooooooooooooooooooooooooooooooo",
".....o......oo.......ooo........"
};
