/* XPM */
static char *exit[] = {
/* columns rows colors chars-per-pixel */
"32 32 4 1 ",
"  c #6ABE30",
". c #99E550",
"X c #639BFF",
"o c #5FCDE4",
/* pixels */
"................................",
".......................     ....",
"................................",
"..............XXXX..............",
"..      ....XXXXXXXX............",
"...........XXXXoXXXXX...........",
"..........XXooooXXXXXX.     ....",
".........XXooXXXXXXXXXX.........",
"........XXooXXXXXXXXXXXX........",
"........XXoXXXXXXXXXXXXX........",
"      .XXoXXXXXXXXXXXXXXX.......",
".......XooXXXXXXXXXXXXXXX.......",
"......XXXXXXXXXXXXXXXXXXXX......",
"......XXXXXXXXXXXXXXXXXXXX......",
"......XXXXXXXXXXXXXXXXXXXX......",
"......XXXXXXXXXXXXXXXXXXXX......",
"......XXXXXXXXXXXXXXXXXXXX......",
"......XXXXXXXXXXXXXXXXXXXX......",
"......XXXXXXXXXXXXXXXXXXXX.     ",
"..... XXXXXXXXXXXXXXXXXoXX......",
".......XXXXXXXXXXXXXXXXoX.......",
".......XXXXXXXXXXXXXXXooX.......",
"........XXXXXXXXXXXXXooX........",
"    ....XXXXXXXXXXXXooXX........",
".........XXXXXXXXXXooXX.........",
"..........XXXXXXXXooXX..........",
"...........XXXXXXooXX...........",
"...      ...XXXXXoXX...       ..",
"..............XXXX..............",
"................................",
"................................",
"     .      ..       ...        "
};
