/* XPM */
static char *wall[] = {
/* columns rows colors chars-per-pixel */
"32 32 2 1 ",
"  c #696A6A",
". c #847E87",
/* pixels */
"....... ........................",
"....... ........................",
"....... ........................",
"....... ........................",
"....... ........................",
"                                ",
".... ................ ..........",
".... ................ ..........",
".... ................ ..........",
".... ................ ..........",
".... ................. .........",
".... ................. .........",
".... ................. .........",
".... ................. .........",
".... .............              ",
"                  ..............",
"............... ................",
"............... ................",
"............... ................",
"............... ................",
"............... ................",
"............... ................",
"           .... ................",
"... .......                     ",
"... ......... ........... ......",
"... ......... ........... ......",
".... ........ ........... ......",
".... ....... ............ ......",
".... ....... ............. .....",
".... ....... ............. .....",
".... ....... ............. .....",
"                                "
};
