/* XPM */
static char *player[] = {
/* columns rows colors chars-per-pixel */
"32 32 3 1 ",
"  c black",
". c #6ABE30",
"X c #99E550",
/* pixels */
"XXXXXXXXXXXXXXXXXXXXXXXXXXXXXXXX",
"XXXXXXXXXXXXXXXXXXXXXXX.....XXXX",
"XXXXXXXXXXXXXXXXXXXXXXXXXXXXXXXX",
"XXXXXXXXXXXXXXXXXXXXXXXXXXXXXXXX",
"XX......XXXXX      XXXXXXXXXXXXX",
"XXXXXXXXXXX  XXXXXX  XXXXXXXXXXX",
"XXXXXXXXXX  X.....XX   .....XXXX",
"XXXXXXXXX  XXXXXXXXXXXX XXXXXXXX",
"XXXXXXXXX XXXX XXXXXXXX  XXXXXXX",
"XXXXXXXXX XXXXXXXXXX XXX  XXXXXX",
"......XXX XXXXXXXXXXX.... XXXXXX",
"XXXXXXXXX  XXX XXXXXXXXXX XXXXXX",
"XXXXXXXXXX ...  XXXXXXXXX XXXXXX",
"XXXXXXXXXX XXXX XXXX XXXX XXXXXX",
"XXXXXXXXXXX XXX  X   XXX XXXXXXX",
"XXXXXXXXXXXX XXX   ..... XXXXXXX",
"XXXXXXXXXXXXX  XXXXXXXX  XXXXXXX",
"XXXXXXXXXXXXXX    XXXX  XXXXXXXX",
"XXXXXXXXXXXXXXXX      XXXXX.....",
"XXXXX........XXX XXXXXXXXXXXXXXX",
"XXXXXXXXXX  XXXX XXXXXXXXXXXXXXX",
"XXXXXXXXXXX   XX XXXX XXXXXXXXXX",
"XXXXXXXXXXXXX  X X.   ..XXXXXXXX",
"....XXXXXXXXXX     XXXXXXXXXXXXX",
"XXXXXXXXXXXXXXXX  XXXXXXXXXXXXXX",
"XXXXXXXXXXXXXXXX XXXXXXXXXXXXXXX",
"XXXXXXXXXXXXXXXX XXXXXXXXXXXXXXX",
"XXX......XXXXX.   XXXXX.......XX",
"XXXXXXXXXXXXXXX    XXXXXXXXXXXXX",
"XXXXXXXXXXXXXX  XX XXXXXXXXXXXXX",
"XXXXXXXXXXXXXX XXXX  XXXXXXXXXXX",
".....X......X ...... XXX........"
};
