/* XPM */
static char *_90cb64da86742ccd095fcc064fa83d8Dd6vrcQ9delcbMke[] = {
/* columns rows colors chars-per-pixel */
"32 32 8 1 ",
"  c #4F3248",
". c #5E3861",
"X c #613D70",
"o c #6ABE30",
"O c #99E550",
"+ c #4E3CA3",
"@ c #5DB9DE",
"# c #70FFFF",
/* pixels */
"OOOOOOOOOOOOOOOOOOOOOOOOOOOOOOOO",
"OOOOOOOOOOOOOOO++++OOOOoooooOOOO",
"OOOOOOOOOOOOOO@+XX++OOOOOOOOOOOO",
"OOOOOOOOOOOOOO+XXXX+OOOOOOOOOOOO",
"OOooooooOOOOO@XX..XX+OOOOOOOOOOO",
"OOOOOOOO@#OOO+X.  .X+OOOOOOOOOOO",
"OOOOOOOO##OO@+X.  .X++OoooooOOOO",
"OOOOOOOOOOOO@+X    @@@OOOOOOOOOO",
"OOOOOOOOOOOO++.  @@@@@OOOOOOOOOO",
"OOOOOOOOOO@O+X. @@@###OOOOOOOOOO",
"ooooooOOOOO++. @@######ooOOOOOOO",
"OOOOOOOOOOO+X. @#######OOOOOOOOO",
"OOOOOOOOOOo+X.@##@@@###OOOOOOOOO",
"OOOOOOOOOOO+X.@#@@@@@@#OOOOOOOOO",
"OOOOOOOOOOO+X.@#@   @@#OOOOOOOOO",
"OOOOOOOOOOO+X.@@    .@#ooOOOOOOO",
"OOOOOOOOOOO@+.@@ ++ .@@OOOOOOOOO",
"OOOOOOOOOOO@+.@@ @++.@@OOOOOOOOO",
"OOOOOOOOOOO@@+ @@@++.@#OOOOooooo",
"OOOOOoooooo@@+++  ++.@#OOOOOOOOO",
"OOOOOOOOOOO+@@@+++@+.@@OOOOOOOOO",
"OOOOOOOOOOO@++@@@++ X@@OOOOOOOOO",
"OOOOOOOOOOOO+X++++ .@@@oOOOOOOOO",
"ooooOOOOOOOO+X.    .@@@OOOOOOOOO",
"OOOOOOOOOOOO+XX    X@#OOOOOOOOOO",
"OOOOOOOOOOOO@+X.  .X@#OOOOOOOOOO",
"OOOOOOOOOOOOO+XX..XX@@+OOOOOOOOO",
"OOOooooooOOOO@+XXXX@@O+oooooooOO",
"OOOOOOOOOOOOOO+XXXX@OOOOOOOOOOOO",
"OOOOOOOOOOOOOO@+XX@@OOOOOOOOOOOO",
"OOOOOOOOOOOOOOO@@@@OOOOOOOOOOOOO",
"oooooOooooooOOoooooooOOOoooooooo"
};
