/* XPM */
static char *c7fb33988cea4efe8e6548f822b8564c6mrrZSLkjosDgxIx[] = {
/* columns rows colors chars-per-pixel */
"32 32 9 1 ",
"  c #4F3248",
". c #5E3861",
"X c #613D70",
"o c #6ABE30",
"O c #99E550",
"+ c #4E3CA3",
"@ c #657AA6",
"# c #5DB9DE",
"$ c #70FFFF",
/* pixels */
"OOOOOOOOOOOOOOOOOOOOOOOOOOOOOOOO",
"OOOOOOOOOOOOOOO#+++OOOOoooooOOOO",
"OOOOOOOOOOOOOO#++@++OOOOOOOOOOOO",
"OOOOOOOOOOOOOO#+@X@+OOOOOOOOOOOO",
"OOooooooOOOOO#+@..X@+OOOOOOOOOOO",
"OOOOOOOOOOOOO#+.  .X+OOOOOOOOOOO",
"OOOOOOOOO##O##+.  .X++OoooooOOOO",
"OOOOOOOOO##O#+@.  ..@+OOOOOOOOOO",
"OOOOOOOOOOOO#+.    .X+OOOOOOOOOO",
"OOOOOOOOOOOO#+.    .X+OOOOOOOOOO",
"ooooooOOOOO##+.    ..++ooOOOOOOO",
"OOOOOOOOOOO##+     ..@+O#OOOOOOO",
"OOOOOOOOOOo##+      .X+OOOOOOOOO",
"OOOOOOOOO+O##+    ####+OOOOOOOOO",
"OOOOOOOOOOO+#+  ###$$##OOOOOOOOO",
"OOOOOOOOOOO+##+##$$$$$#ooOOOOOOO",
"OOOOOOOOOOO++#+#####$$$OOOOOOOOO",
"OOOOOOOOOOO+++++ + ##$$OOOOOOOOO",
"OOOOOOOOOOO+X+#+++  #$$OOOOooooo",
"OOOOOoooooo+X.+++   #$$OOOOOOOOO",
"OOOOOOOOOOO#@..    .#$$OOOOOOOOO",
"OOOOOOOOOOO#+X.    .#$#OOOOOOOOO",
"OOOOOOOOOOOO+X.    .##ooOOOOOOOO",
"ooooOOOOOOOO+X.    .$#OOOOOOOOOO",
"OOOOOOOOOOOO#@X.  .#$#OOOOOOOOOO",
"OOOOOOOOOOOO#+X.  .###OOOOOOOOOO",
"OOOOOOOOOOOO#+@X..X###OOOOOOOOOO",
"OOOooooooOOOO#+XXX###OOoooooooOO",
"OOOOOOOOOOOOO##X###$#OOOOOOOOOOO",
"OOOOOOOOOOOOOO####$#OOOOOOOOOOOO",
"OOOOOOOOOOOOOOO#####OOOOOOOOOOOO",
"oooooOooooooOOoooooooOOOoooooooo"
};
