/* XPM */
static char *bb73d7b0633f4237c6639d544f8758f5iB4pnk7QSh6tYfza[] = {
/* columns rows colors chars-per-pixel */
"32 32 8 1 ",
"  c #4F3248",
". c #573555",
"X c #613D70",
"o c #6ABE30",
"O c #99E550",
"+ c #4E3CA3",
"@ c #5DB9DE",
"# c #70FFFF",
/* pixels */
"OOOOOOOOOOOOOOOOOOOOOOOOOOOOOOOO",
"OOOOOOOOOOOOOO@#@@@OOOOoooooOOOO",
"OOOOOOOOOOOOOO#@@X+@OOOOOOOOOOOO",
"OOOOOOOOOOOOO@@@XXX+OOOOOOOOOOOO",
"OOooooooO#OOO#@X..XX@OOOOOOOOOOO",
"OOOOOOOOOOOO@#@.  .X+OOOOOOOOOOO",
"OOOOOOOOOOOO##@.  .X+@OoooooOOOO",
"OOOOOOOOOOOO#@X    .X@OOOOOOOOOO",
"OOOOOOOOOOO@#@.    .X+OOOOOOOOOO",
"OOOOOOOOOOO@#@.    .X+OOOOOOOOOO",
"ooooooOOOOO##@      .+@ooOOOOOOO",
"OOOOOOOOOOO##@      .X@OOOOOOOOO",
"OOOOOOOOOOo##@      .X+OOOOOOOOO",
"OOOOOOOOOOO##@    +++++OOOOOOOOO",
"OOOOOOOOOOO@#@  +++@@@+OOOOOOOOO",
"OOOOOOOOOOO@#@@++@@@@@@ooOOOOOOO",
"OOOOOOOOOOO+@#@+++++@@@#OOOOOOOO",
"OOOOOOOOOOO+@#@+ @ ++@@OOOOOOOOO",
"OOOOOOOOOOO+X@#@+@  +@@OOOOooooo",
"OOOOOoooooo+X.@@@   +@@OOOOOOOOO",
"OOOOOOOOOOO+X.      +@@OOOOOOOOO",
"OOOOOOOOOOO++X.    .+@@OOOOOOOOO",
"OOOOOOOOOOOO+X.    .+@ooOOOOOOOO",
"ooooOOOOOOOO+X.    .+@OOOOOOOOOO",
"OOOOOOOOOOOO+XX    +@@OOOOOOOOOO",
"OOOOOOOOOOOO++X.  .+@@OOOOOOOOOO",
"OOOOOOOOOOOOO+XX..X+@OOOOOOOOOOO",
"OOOooooooO++O++XXX+@@OOo@@ooooOO",
"OOOOOOOOOO++OO+X+++@OOOOO@OOOOOO",
"OOOOOOOOOOOOOO++@@@@OOOOOOOOOOOO",
"OOOOOOOOOOOOOOO++++OOOOOOOOOOOOO",
"oooooOooooooOOoooooooOOOoooooooo"
};
