/* XPM */
static char *dc694701dfdd4ceed0daa1a942d3c905K3bKl0SsRHxf38h9[] = {
/* columns rows colors chars-per-pixel */
"32 32 8 1 ",
"  c #4F3248",
". c #5E3861",
"X c #613D70",
"o c #6ABE30",
"O c #99E550",
"+ c #4E3CA3",
"@ c #5DB9DE",
"# c #70FFFF",
/* pixels */
"OOOOOOOOOOOOOOOOOOOOOOOOOOOOOOOO",
"OOOOOOOOOOOOOOO++++OOOOoooooOOOO",
"OOOOOOOOOOOOOO++++++OOOOOOOOOOOO",
"OOOOOOOOOOOOOO+++@@@OOOOOOOOOOOO",
"OOooooooOOOOO@X+@@@@@OOOOOOOOOOO",
"OOOOOOOOOOOOO+++@@@@@OOOOOOOOOOO",
"OOOOOOOOOOOO@++@@@@@@@OoooooOOOO",
"OOOOOOOOOOOO@X+@@+++@@OOOOOOOOOO",
"OOOOOOOOOOO@+++@@+ .+@OOOOOOOOOO",
"OOOOOOOOOOOO++@@+  .X+OOOOOOOOOO",
"ooooooOOOOO@X+@@+  ..+@ooOOOOOOO",
"OOOOOOOOOOO@X+@+   ..+@OOOOOOOOO",
"OOOOOOOOOOo@X+@+    .+@O@@OOOOOO",
"OOOOOOOOOOO@X+@+    .X+OO@OOOOOO",
"OOOOOOOOO++@X+@     .X+OOOOOOOOO",
"OOOOOOOOO+O@X+@     .X+ooOOOOOOO",
"OOOOOOOOOOO@X++ @@@ .X+OOOOOOOOO",
"OOOOOOOOOOO@@++ ++@@.X+OOOOOOOOO",
"OOOOOOOOOOO#@.++ + @@X+OOOOooooo",
"OOOOOoooooo#@. ++  @@X+OOOOOOOOO",
"OOOOOOOOOOO#@@.    @@X+OOOOOOOOO",
"OOOOOOOOOOO##@.   @#@++OOOOOOOOO",
"OOOOOOOOOOO@#@@@@@##@+ooOOOOOOOO",
"ooooOOOOOOOO#####@@@X+OOOOOOOOOO",
"OOOOOOOOOOOO@###@@@XX+OOOOOOOOOO",
"OOOOOOOOO+OO+@@@@ .X++OOOOOOOOOO",
"OOOOOOOOOOOOO+XX..XX+OOOOOOOOOOO",
"OOOooooooOOOO++XXXX++OOoooooooOO",
"OOOOOOOOOOOOOO+XXXX+OOOOOOOOOOOO",
"OOOOOOOOOOOOOO++XX++OOOOOOOOOOOO",
"OOOOOOOOOOOOOOO++++OOOOOOOOOOOOO",
"oooooOooooooOOoooooooOOOoooooooo"
};
