/* XPM */
static char *_54d599018a547528bd6a0252408a8d1IB7OAoLWqxb6HbwW[] = {
/* columns rows colors chars-per-pixel */
"32 32 9 1 ",
"  c #4F3248",
". c #5E3861",
"X c #613D70",
"o c #6ABE30",
"O c #99E550",
"+ c #4E3CA3",
"@ c #657AA6",
"# c #5DB9DE",
"$ c #70FFFF",
/* pixels */
"OOOOOOOOOOOOOOOOOOOOOOOOOOOOOOOO",
"OOOOOOOOOOOOOOO##++OOOOoooooOOOO",
"OOOOOOOOOOOOOO#+@@+#OOOOOOOOOOOO",
"OOOOOOOOOOOOOO#@XX@+OOOOOOOOOOOO",
"OOooooooOOOOO#@X..X@+OOOOOOOOOOO",
"OOOOOOOOOOOOO#X.  .X+OOOOOOOOOOO",
"OOOOOOOOOOOO$#X.  .X++OoooooOOOO",
"OOOOOOOOOOOO$#X    +++OOOOOOOOOO",
"OOOOOOOOOOOO##.  +++++OOOOOOOOOO",
"OOOOOOOOOOO##X. +++###OOOOOOOOOO",
"ooooooOOOOO##. ++######ooOOOOOOO",
"OOOOOOOOOOO#X. +#######OOOOOOOOO",
"OOOOOOOOOOo#X.++#+++###OOOOOOOOO",
"OOOOOOOOOOO#X.+##++++##O##OOOOOO",
"OOOOOOOOOOO#X.+#+   ++#O#$OOOOOO",
"OOOOOOOOOO+#X.+#    .+#o$OOOOOOO",
"OOOOOOOOOO+$#.++ ## .+#OOOOOOOOO",
"OOOOOOOOOOO$#.++ +##.+#OOOOOOOOO",
"OOOOOOOOOOO$## +++$#.+#OOOOooooo",
"OOOOOoooooo$$###  $#.+#OOOOOOOOO",
"OOOOOOOOOOO#$$$#####.+#OOOOOOOOO",
"OOOOOOOOOOO+###$$## @++OOOOOOOOO",
"OOOOOOOOOOO#+X#### .++ooOOOOOOOO",
"ooooOOOOOOOO+X.    .++OOOOOOOOOO",
"OOOOOOOOOOOO+@X    X+#OOOOOOOOOO",
"OOOOOOOOOOOO++X.  .X+#OOOOOOOOOO",
"OOOOOOOOO++OO+@X..X@+OOOO#OOOOOO",
"OOOoooooo+OOO++XXXX+#OOoooooooOO",
"OOOOOOOOOOOOOO+@XX@+OOOOOOOOOOOO",
"OOOOOOOOOOOOOO++@@+#OOOOOOOOOOOO",
"OOOOOOOOOOOOOOO++++OOOOOOOOOOOOO",
"oooooOooooooOOoooooooOOOoooooooo"
};
