/* XPM */
static char *_db08152f6e448b29af97b4a41486e36uZ4CpNnD2wJ74hlk[] = {
/* columns rows colors chars-per-pixel */
"32 32 9 1 ",
"  c #4F3248",
". c #5E3861",
"X c #613D70",
"o c #6ABE30",
"O c #99E550",
"+ c #4E3CA3",
"@ c #657AA6",
"# c #5DB9DE",
"$ c #70FFFF",
/* pixels */
"OOOOOOOOOOOOOOOOOOOOOOOOOOOOOOOO",
"OOOOOOOOOOOOOOO++###OOOoooooOOOO",
"OOOOOOOOOOOOOO++####OOOOOOOOOOOO",
"OOOOOOOOOOOOOO+#$$$##OOOOOOOOOOO",
"OOooooooOOOOO+@#$$$$#OOOOOOOOOOO",
"OOOOOOOO$$OOO+#$$$$$$#OOOOOOOOOO",
"OOOOOOOOOOOO++#$$###$#OoooooOOOO",
"OOOOOOOOOOOO+@#$#####$OOOOOOOOOO",
"OOOOOOOOO+OO+#$$## .#$OOOOOOOOOO",
"OOOOOOOOOOOO+#$$#  .X##OOOOOOOOO",
"ooooooOOOOO+@#$##  ..#$ooOOOOOOO",
"OOOOOOOOOOO+X#$#   ..#$OOOOOOOOO",
"OOOOOOOOOOo+X###    .#$OOOOOOOOO",
"OOOOOOOOOOO+X###    .X#OOOOOOOOO",
"OOOOOOOOOOO+X#$     .X#OOOOOOOOO",
"OOOOOOOOOOO+X#$     .X#ooOOOOOOO",
"OOOOOOOOOOO+X#$ +++ .X#OOOOOOOOO",
"OOOOOOOOOOO++## +#++.X#OOOOOOOOO",
"OOOOOOOOOOO#+.## # ++X#OOOOooooo",
"OOOOOoooooo#+. ##  ++X#OOOOOOOOO",
"OOOOOOOOOOO#++.    #+X#OOOOOOOOO",
"OOOOOOOOOOO##+.   +#+++OOOOOOOOO",
"OOOOOOOOOOOO#++++++#++ooOOOOOOOO",
"ooooOOOOOOOO#######+X+OOOOOOOOOO",
"OOOOOOOOOOOO++###++X@#OOOOOOOOOO",
"OOOOOOOOOOOO+++++ .X+#OOOOOOOOOO",
"OOOOOOOOOOOOO+@X..X@+OOOOOOOOOOO",
"OOOooooooOOOO++XXXX+#OO++oooooOO",
"OOOOOOOOOOOO+O+@XX@+OOO++OOOOOOO",
"OOOOOOOOOOOOOO++@@+#OOOOOOOOOOOO",
"OOOOOOOOOOOOOOO++++OOOOOOOOOOOOO",
"oooooOooooooOOoooooooOOOoooooooo"
};
