/* XPM */
static char *ae483635d4e34058b43cc6792367ebaaQRmvf7754NQWtETl[] = {
/* columns rows colors chars-per-pixel */
"32 32 6 1 ",
"  c #737171",
". c #6ABE30",
"X c #99E550",
"o c #908E8E",
"O c #ADAAAA",
"+ c #CECECE",
/* pixels */
"XXXXXXXXXXXXXXXXXXXXXXXXXXXXXXXX",
"XXXXXXXXXXXXXXXXXXXXXXX.....XXXX",
"XXXXXXXXXXXXXXXXXXXXXXXXXXXXXXXX",
"XXXXXXXOXXXXXXXXXXXXXXXXXXXXXXXX",
"XX.....OXXXXXXXXXXXXXXXOXXXXXXXX",
"XXXXXXOO+XXXXXXXXXXXXXXOXXXXXXXX",
"XXXXXXOO+oXXX.....XXXXOO+...XXXX",
"XXXXXoOOO+oXXXXXXXXXXXOO+oXXXXXX",
"XXXXo OOO+ oXXXXXXXXXoOO+ oXXXXX",
"XXXo OOOO+  oXXXXXXXo OO+  oXXXX",
"...o OOOOO+ oXXXXXXo OOOO+  oXXX",
"XXXXo OOOOOoXXXXXXXo OOOO+  oXXX",
"XXXXXo    o...XXXXXXo OOO  oXXXX",
"XXXXXXooooXXXXXXXXXXXo    oXXXXX",
"XXXXXXXXXXXXXXXXXXXXXXooooXXXXXX",
"XXXXXXXXXXXXXXXXX........XXXXXXX",
"XXXXXXXXXXXXXXXXOXXXXXXXXXXXXXXX",
"XXXXXXXXXXXXXXXOOXXXXXXXXXXXXXXX",
"XXXXXXXXXXXXXXXOO+XXXXXXXXX.....",
"XXXXX........oOOO+XXXXXXXXXXXXXX",
"XXXXXXXXXXXXo OOO+oXXXXXXXXXXXXX",
"XXXXXXXXXXXo OOOO+ oXXXXXXXXXXXX",
"XXXXXXXXXXo  OOOOO+ o...XXXXXXXX",
"....XXXXXXo OOOOOO+ oXXXXXXXXXXX",
"XXXXXXXXXXXo  OOO  oXXXXXXXXXXXX",
"XXXXXXXXXXXXo     oXXXXXXXXXXXXX",
"XXXXXXXXXXXXXoooooXXXXXXXXXXXXXX",
"XXX......XXXXX....XXXXX.......XX",
"XXXXXXXXXXXXXXXXXXXXXXXXXXXXXXXX",
"XXXXXXXXXXXXXXXXXXXXXXXXXXXXXXXX",
"XXXXXXXXXXXXXXXXXXXXXXXXXXXXXXXX",
".....X......XX.......XXX........"
};
