/* XPM */
static char *_b832a54524e4b4bdb5f21004d03119dwFkSCO22hUk2DHpi[] = {
/* columns rows colors chars-per-pixel */
"32 32 4 1 ",
"  c #737171",
". c #6ABE30",
"X c #99E550",
"o c #908E8E",
/* pixels */
"XXXXXXXXXXXXXXXXXXXXXXXXXXXXXXXX",
"XXXXXXXXXXXXXXXXXXXXXXX.....XXXX",
"XXXXXXXXXXXXXXXXXXXXXXXXXXXXXXXX",
"XXXXXXXXXXXXXXXXXXXXXXXXXXXXXXXX",
"XX......XXXXXXXXXXXXXXXXXXXXXXXX",
"XXXXXXXXXXXXXXXXXXXXXXXXXXXXXXXX",
"XXXXXXooooXXX.....XXXXX.....XXXX",
"XXXXXo    oXXXXXXXXXXXooooXXXXXX",
"XXXXo      oXXXXXXXXXo    oXXXXX",
"XXXo        oXXXXXXXo      oXXXX",
"...o        oXXXXXXo        oXXX",
"XXXXo      oXXXXXXXo        oXXX",
"XXXXXo    o...XXXXXXo      oXXXX",
"XXXXXXooooXXXXXXXXXXXo    oXXXXX",
"XXXXXXXXXXXXXXXXXXXXXXooooXXXXXX",
"XXXXXXXXXXXXXXXXX........XXXXXXX",
"XXXXXXXXXXXXXXXXXXXXXXXXXXXXXXXX",
"XXXXXXXXXXXXXXXXXXXXXXXXXXXXXXXX",
"XXXXXXXXXXXXXXXXXXXXXXXXXXX.....",
"XXXXX........oooooXXXXXXXXXXXXXX",
"XXXXXXXXXXXXo     oXXXXXXXXXXXXX",
"XXXXXXXXXXXo       oXXXXXXXXXXXX",
"XXXXXXXXXXo         o...XXXXXXXX",
"....XXXXXXo         oXXXXXXXXXXX",
"XXXXXXXXXXXo       oXXXXXXXXXXXX",
"XXXXXXXXXXXXo     oXXXXXXXXXXXXX",
"XXXXXXXXXXXXXoooooXXXXXXXXXXXXXX",
"XXX......XXXXX....XXXXX.......XX",
"XXXXXXXXXXXXXXXXXXXXXXXXXXXXXXXX",
"XXXXXXXXXXXXXXXXXXXXXXXXXXXXXXXX",
"XXXXXXXXXXXXXXXXXXXXXXXXXXXXXXXX",
".....X......XX.......XXX........"
};
